<svg width="20" height="20" viewBox="0 0 20 20" fill="none" xmlns="http://www.w3.org/2000/svg">
<path d="M7.14583 11.25H11.8333V9.99996H7.14583V11.25ZM7.14583 9.37496H15.375V8.12496H7.14583V9.37496ZM7.14583 7.49996H15.375V6.24996H7.14583V7.49996ZM5.41666 15.8333C5.08333 15.8333 4.79166 15.7083 4.54166 15.4583C4.29166 15.2083 4.16666 14.9166 4.16666 14.5833V2.91663C4.16666 2.58329 4.29166 2.29163 4.54166 2.04163C4.79166 1.79163 5.08333 1.66663 5.41666 1.66663H17.0833C17.4167 1.66663 17.7083 1.79163 17.9583 2.04163C18.2083 2.29163 18.3333 2.58329 18.3333 2.91663V14.5833C18.3333 14.9166 18.2083 15.2083 17.9583 15.4583C17.7083 15.7083 17.4167 15.8333 17.0833 15.8333H5.41666ZM5.41666 14.5833H17.0833V2.91663H5.41666V14.5833ZM2.91666 18.3333C2.58333 18.3333 2.29166 18.2083 2.04166 17.9583C1.79166 17.7083 1.66666 17.4166 1.66666 17.0833V4.16663H2.91666V17.0833H15.8333V18.3333H2.91666ZM5.41666 2.91663V14.5833V2.91663Z" fill="url(#paint0_linear_20_236)"/>
<defs>
<linearGradient id="paint0_linear_20_236" x1="10" y1="1.66663" x2="10" y2="18.3333" gradientUnits="userSpaceOnUse">
<stop stop-color="#F9A9D6"/>
<stop offset="1" stop-color="#F347CD"/>
</linearGradient>
</defs>
</svg>
