<svg width="20" height="20" viewBox="0 0 20 20" fill="none" xmlns="http://www.w3.org/2000/svg">
<path d="M10 18.3333C8.83333 18.3333 7.74305 18.1145 6.72916 17.677C5.71528 17.2395 4.83333 16.6458 4.08333 15.8958C3.33333 15.1458 2.74305 14.2604 2.3125 13.2395C1.88194 12.2187 1.66666 11.125 1.66666 9.95829C1.66666 8.79163 1.88194 7.70482 2.3125 6.69788C2.74305 5.69093 3.33333 4.81246 4.08333 4.06246C4.83333 3.31246 5.71528 2.72565 6.72916 2.30204C7.74305 1.87843 8.83333 1.66663 10 1.66663C11.1667 1.66663 12.2569 1.87843 13.2708 2.30204C14.2847 2.72565 15.1667 3.31246 15.9167 4.06246C16.6667 4.81246 17.2569 5.69093 17.6875 6.69788C18.1181 7.70482 18.3333 8.79163 18.3333 9.95829C18.3333 11.125 18.1181 12.2187 17.6875 13.2395C17.2569 14.2604 16.6667 15.1458 15.9167 15.8958C15.1667 16.6458 14.2847 17.2395 13.2708 17.677C12.2569 18.1145 11.1667 18.3333 10 18.3333ZM10 17.125C10.4861 16.625 10.8924 16.052 11.2187 15.4062C11.5451 14.7604 11.8125 13.993 12.0208 13.1041H8C8.19444 13.9375 8.45486 14.6875 8.78125 15.3541C9.10764 16.0208 9.51389 16.6111 10 17.125ZM8.22916 16.875C7.88194 16.3472 7.58333 15.7777 7.33333 15.1666C7.08333 14.5555 6.875 13.868 6.70833 13.1041H3.58333C4.11111 14.0902 4.72222 14.8645 5.41666 15.427C6.11111 15.9895 7.04861 16.4722 8.22916 16.875ZM11.7917 16.8541C12.7917 16.5347 13.691 16.0555 14.4896 15.4166C15.2882 14.7777 15.9306 14.0069 16.4167 13.1041H13.3125C13.1319 13.8541 12.9201 14.5347 12.6771 15.1458C12.434 15.7569 12.1389 16.3263 11.7917 16.8541ZM3.16666 11.8541H6.47916C6.4375 11.4791 6.41319 11.1423 6.40625 10.8437C6.3993 10.5451 6.39583 10.25 6.39583 9.95829C6.39583 9.61107 6.40278 9.30204 6.41666 9.03121C6.43055 8.76038 6.45833 8.45829 6.5 8.12496H3.16666C3.06944 8.45829 3.00347 8.7569 2.96875 9.02079C2.93403 9.28468 2.91666 9.59718 2.91666 9.95829C2.91666 10.3194 2.93403 10.6423 2.96875 10.927C3.00347 11.2118 3.06944 11.5208 3.16666 11.8541ZM7.77083 11.8541H12.25C12.3056 11.4236 12.3403 11.0729 12.3542 10.802C12.3681 10.5312 12.375 10.25 12.375 9.95829C12.375 9.68052 12.3681 9.41315 12.3542 9.15621C12.3403 8.89927 12.3056 8.55552 12.25 8.12496H7.77083C7.71528 8.55552 7.68055 8.89927 7.66666 9.15621C7.65278 9.41315 7.64583 9.68052 7.64583 9.95829C7.64583 10.25 7.65278 10.5312 7.66666 10.802C7.68055 11.0729 7.71528 11.4236 7.77083 11.8541ZM13.5 11.8541H16.8333C16.9306 11.5208 16.9965 11.2118 17.0312 10.927C17.066 10.6423 17.0833 10.3194 17.0833 9.95829C17.0833 9.59718 17.066 9.28468 17.0312 9.02079C16.9965 8.7569 16.9306 8.45829 16.8333 8.12496H13.5208C13.5625 8.61107 13.5903 8.9826 13.6042 9.23954C13.6181 9.49649 13.625 9.73607 13.625 9.95829C13.625 10.2638 13.6146 10.552 13.5937 10.8229C13.5729 11.0937 13.5417 11.4375 13.5 11.8541ZM13.2917 6.87496H16.4167C15.9583 5.91663 15.3299 5.11802 14.5312 4.47913C13.7326 3.84024 12.8125 3.38885 11.7708 3.12496C12.1181 3.63885 12.4132 4.1944 12.6562 4.79163C12.8993 5.38885 13.1111 6.08329 13.2917 6.87496ZM8 6.87496H12.0417C11.8889 6.13885 11.6319 5.42704 11.2708 4.73954C10.9097 4.05204 10.4861 3.4444 10 2.91663C9.55555 3.29163 9.18055 3.78468 8.875 4.39579C8.56944 5.0069 8.27778 5.83329 8 6.87496ZM3.58333 6.87496H6.72916C6.88194 6.12496 7.07639 5.45482 7.3125 4.86454C7.54861 4.27427 7.84722 3.70135 8.20833 3.14579C7.16666 3.40968 6.25694 3.85413 5.47916 4.47913C4.70139 5.10413 4.06944 5.90274 3.58333 6.87496Z" fill="url(#paint0_linear_20_238)"/>
<defs>
<linearGradient id="paint0_linear_20_238" x1="10" y1="1.66663" x2="10" y2="18.3333" gradientUnits="userSpaceOnUse">
<stop stop-color="#F9A9D6"/>
<stop offset="1" stop-color="#F347CD"/>
</linearGradient>
</defs>
</svg>
