<svg width="120" height="36" viewBox="0 0 120 36" fill="none" xmlns="http://www.w3.org/2000/svg">
<path d="M0.304001 26.012L1.482 21.072C2.21667 21.2493 2.91333 21.414 3.572 21.566C4.23067 21.6927 4.85133 21.794 5.434 21.87C6.042 21.946 6.58667 21.984 7.068 21.984C8.056 21.984 8.86667 21.832 9.5 21.528C10.1333 21.224 10.602 20.7173 10.906 20.008C11.21 19.2987 11.362 18.3233 11.362 17.082V6.02399H2.204V0.399994H17.784V18.602C17.784 20.5273 17.4673 22.1487 16.834 23.466C16.226 24.7833 15.2633 25.7713 13.946 26.43C12.654 27.0633 10.982 27.38 8.93 27.38C7.99267 27.38 7.03 27.3167 6.042 27.19C5.07933 27.0887 4.104 26.9493 3.116 26.772C2.15333 26.5693 1.216 26.316 0.304001 26.012Z" fill="#0E0E0E"/>
<path d="M19.5293 21.338C19.5293 20.0967 19.7573 19.0707 20.2133 18.26C20.6947 17.4493 21.4167 16.8033 22.3793 16.322C23.3673 15.8407 24.6087 15.4733 26.1033 15.22C27.598 14.9413 29.3713 14.726 31.4233 14.574V13.32C31.4233 12.56 31.1067 12.0027 30.4733 11.648C29.84 11.2933 28.928 11.116 27.7373 11.116C27.2053 11.116 26.5973 11.1413 25.9133 11.192C25.2293 11.2427 24.52 11.3313 23.7853 11.458C23.076 11.5847 22.3413 11.762 21.5813 11.99L20.5933 7.126C21.7333 6.77133 22.9873 6.49266 24.3553 6.29C25.7233 6.062 26.99 5.948 28.1553 5.948C30.3847 5.948 32.1833 6.22666 33.5513 6.784C34.9447 7.31599 35.958 8.12666 36.5913 9.21599C37.25 10.3053 37.5793 11.648 37.5793 13.244V20.464C37.5793 21.0973 37.668 21.5153 37.8453 21.718C38.048 21.9207 38.276 22.022 38.5293 22.022C38.656 22.022 38.7953 22.022 38.9473 22.022C39.1247 21.9967 39.2767 21.9587 39.4033 21.908L39.8973 26.354C39.3907 26.658 38.8207 26.8987 38.1873 27.076C37.5793 27.2787 36.8953 27.38 36.1353 27.38C35.0713 27.38 34.1973 27.19 33.5133 26.81C32.8547 26.4047 32.3607 25.7967 32.0313 24.986C31.3727 25.4673 30.7013 25.898 30.0173 26.278C29.3587 26.6327 28.6367 26.8987 27.8513 27.076C27.0913 27.2787 26.23 27.38 25.2673 27.38C24.406 27.38 23.6207 27.2407 22.9113 26.962C22.2273 26.6833 21.6193 26.2907 21.0873 25.784C20.5807 25.252 20.188 24.6187 19.9093 23.884C19.656 23.1493 19.5293 22.3007 19.5293 21.338ZM25.7993 20.958C25.7993 21.7687 25.9767 22.364 26.3313 22.744C26.686 23.124 27.1547 23.314 27.7373 23.314C28.1427 23.314 28.5607 23.2507 28.9913 23.124C29.4473 22.9973 29.8907 22.82 30.3213 22.592C30.752 22.3387 31.1193 22.06 31.4233 21.756V17.88C30.486 17.956 29.6627 18.0573 28.9533 18.184C28.2693 18.2853 27.6867 18.45 27.2053 18.678C26.724 18.906 26.3693 19.21 26.1413 19.59C25.9133 19.9447 25.7993 20.4007 25.7993 20.958Z" fill="#0E0E0E"/>
<path d="M49.3059 35.36C46.2406 35.36 43.9226 34.9167 42.3519 34.03C40.8066 33.1687 40.0339 31.864 40.0339 30.116C40.0339 29.432 40.1479 28.7987 40.3759 28.216C40.6292 27.6587 40.9966 27.152 41.4779 26.696C41.9846 26.24 42.6052 25.8473 43.3399 25.518L46.5319 26.696C46.1772 26.8733 45.8859 27.0507 45.6579 27.228C45.4299 27.4307 45.2526 27.646 45.1259 27.874C45.0246 28.1273 44.9739 28.4187 44.9739 28.748C44.9739 29.2547 45.1259 29.6727 45.4299 30.002C45.7339 30.3313 46.2279 30.572 46.9119 30.724C47.6212 30.9013 48.5586 30.99 49.7239 30.99C50.8639 30.99 51.8266 30.8887 52.6119 30.686C53.3972 30.5087 53.9926 30.2553 54.3979 29.926C54.8032 29.5967 55.0059 29.1913 55.0059 28.71C55.0059 28.33 54.9172 28.0387 54.7399 27.836C54.5879 27.6333 54.3092 27.4813 53.9039 27.38C53.4986 27.2787 52.9159 27.228 52.1559 27.228H48.0139C46.5699 27.228 45.3159 27.0633 44.2519 26.734C43.1879 26.4047 42.3646 25.898 41.7819 25.214C41.2246 24.53 40.9459 23.6687 40.9459 22.63C40.9459 21.5407 41.2119 20.6413 41.7439 19.932C42.3012 19.1973 43.0612 18.5767 44.0239 18.07L47.2159 18.982C46.7092 19.2353 46.3166 19.514 46.0379 19.818C45.7846 20.0967 45.6579 20.464 45.6579 20.92C45.6579 21.376 45.8352 21.7307 46.1899 21.984C46.5446 22.212 47.0892 22.326 47.8239 22.326H54.2079C56.3359 22.326 57.9699 22.82 59.1099 23.808C60.2499 24.796 60.8199 26.1767 60.8199 27.95C60.8199 29.5207 60.3766 30.8507 59.4899 31.94C58.6286 33.0547 57.3366 33.9033 55.6139 34.486C53.9166 35.0687 51.8139 35.36 49.3059 35.36ZM49.9139 20.046C47.0006 20.046 44.7966 19.4507 43.3019 18.26C41.8326 17.0693 41.0979 15.3213 41.0979 13.016C41.0979 10.66 41.8326 8.89933 43.3019 7.73399C44.7966 6.54333 47.0006 5.948 49.9139 5.948C52.8272 5.948 55.0312 6.54333 56.5259 7.73399C58.0206 8.89933 58.7679 10.66 58.7679 13.016C58.7679 15.3213 58.0206 17.0693 56.5259 18.26C55.0312 19.4507 52.8272 20.046 49.9139 20.046ZM49.9139 16.094C50.9019 16.094 51.6366 15.866 52.1179 15.41C52.5992 14.954 52.8399 14.156 52.8399 13.016C52.8399 11.8253 52.5992 11.002 52.1179 10.546C51.6366 10.09 50.9019 9.86199 49.9139 9.86199C48.9512 9.86199 48.2166 10.09 47.7099 10.546C47.2286 11.002 46.9879 11.8253 46.9879 13.016C46.9879 14.156 47.2286 14.954 47.7099 15.41C48.2166 15.866 48.9512 16.094 49.9139 16.094ZM57.3619 10.888L55.0059 7.696C55.3859 6.75866 55.9306 6.062 56.6399 5.60599C57.3746 5.14999 58.2866 4.92199 59.3759 4.92199C59.7559 4.92199 60.1106 4.94733 60.4399 4.99799C60.7692 5.04866 61.0732 5.12466 61.3519 5.226L60.6299 9.93799C60.4272 9.88733 60.2119 9.84933 59.9839 9.82399C59.7559 9.77333 59.5152 9.74799 59.2619 9.74799C58.8566 9.74799 58.4892 9.84933 58.1599 10.052C57.8559 10.2293 57.5899 10.508 57.3619 10.888Z" fill="#0E0E0E"/>
<path d="M68.772 27.38C67.556 27.38 66.492 27.1647 65.58 26.734C64.668 26.278 63.946 25.5813 63.414 24.644C62.9073 23.7067 62.654 22.5413 62.654 21.148V6.32799H68.886V19.666C68.886 20.5273 69.1013 21.1733 69.532 21.604C69.9627 22.0093 70.558 22.212 71.318 22.212C71.7233 22.212 72.1033 22.174 72.458 22.098C72.838 22.022 73.2053 21.908 73.56 21.756C73.94 21.604 74.3453 21.4267 74.776 21.224V6.32799H81.008V20.578C81.008 20.958 81.046 21.262 81.122 21.49C81.198 21.6927 81.312 21.8447 81.464 21.946C81.616 22.0473 81.7933 22.098 81.996 22.098C82.2747 22.098 82.5407 22.0347 82.794 21.908L83.326 26.392C82.9967 26.5693 82.6293 26.734 82.224 26.886C81.8186 27.038 81.3627 27.152 80.856 27.228C80.3746 27.3293 79.8807 27.38 79.374 27.38C78.4367 27.38 77.6513 27.2027 77.018 26.848C76.41 26.468 75.916 25.9487 75.536 25.29C74.8013 25.7207 74.0793 26.1007 73.37 26.43C72.6607 26.734 71.926 26.962 71.166 27.114C70.4313 27.2913 69.6333 27.38 68.772 27.38Z" fill="#0E0E0E"/>
<path d="M83.7761 21.338C83.7761 20.0967 84.0041 19.0707 84.4601 18.26C84.9414 17.4493 85.6634 16.8033 86.6261 16.322C87.6141 15.8407 88.8554 15.4733 90.3501 15.22C91.8447 14.9413 93.618 14.726 95.6701 14.574V13.32C95.6701 12.56 95.3534 12.0027 94.7201 11.648C94.0867 11.2933 93.1747 11.116 91.9841 11.116C91.4521 11.116 90.844 11.1413 90.16 11.192C89.4761 11.2427 88.7667 11.3313 88.0321 11.458C87.3227 11.5847 86.5881 11.762 85.828 11.99L84.84 7.126C85.98 6.77133 87.2341 6.49266 88.6021 6.29C89.9701 6.062 91.2367 5.948 92.4021 5.948C94.6314 5.948 96.4301 6.22666 97.798 6.784C99.1914 7.31599 100.205 8.12666 100.838 9.21599C101.497 10.3053 101.826 11.648 101.826 13.244V20.464C101.826 21.0973 101.915 21.5153 102.092 21.718C102.295 21.9207 102.523 22.022 102.776 22.022C102.903 22.022 103.042 22.022 103.194 22.022C103.371 21.9967 103.523 21.9587 103.65 21.908L104.144 26.354C103.637 26.658 103.067 26.8987 102.434 27.076C101.826 27.2787 101.142 27.38 100.382 27.38C99.318 27.38 98.4441 27.19 97.7601 26.81C97.1014 26.4047 96.6074 25.7967 96.2781 24.986C95.6194 25.4673 94.9481 25.898 94.2641 26.278C93.6054 26.6327 92.8834 26.8987 92.0981 27.076C91.3381 27.2787 90.4767 27.38 89.5141 27.38C88.6527 27.38 87.8674 27.2407 87.1581 26.962C86.4741 26.6833 85.8661 26.2907 85.3341 25.784C84.8274 25.252 84.4347 24.6187 84.1561 23.884C83.9027 23.1493 83.7761 22.3007 83.7761 21.338ZM90.0461 20.958C90.0461 21.7687 90.2234 22.364 90.578 22.744C90.9327 23.124 91.4014 23.314 91.9841 23.314C92.3894 23.314 92.8074 23.2507 93.2381 23.124C93.6941 22.9973 94.1374 22.82 94.5681 22.592C94.9987 22.3387 95.3661 22.06 95.6701 21.756V17.88C94.7327 17.956 93.9094 18.0573 93.2001 18.184C92.5161 18.2853 91.9334 18.45 91.452 18.678C90.9707 18.906 90.6161 19.21 90.3881 19.59C90.1601 19.9447 90.0461 20.4007 90.0461 20.958Z" fill="#0E0E0E"/>
<path d="M111.271 6.32799V8.72199C111.98 8.06333 112.626 7.53133 113.209 7.126C113.791 6.72066 114.387 6.42933 114.995 6.252C115.603 6.04933 116.274 5.948 117.009 5.948C117.414 5.948 117.845 5.98599 118.301 6.062C118.757 6.11266 119.213 6.21399 119.669 6.36599L118.681 11.99C118.225 11.8887 117.769 11.8127 117.313 11.762C116.857 11.686 116.439 11.648 116.059 11.648C115.4 11.648 114.729 11.762 114.045 11.99C113.361 12.1927 112.626 12.5727 111.841 13.13V27H105.647V6.32799H111.271Z" fill="#0E0E0E"/>
</svg>
